<svg xmlns="http://www.w3.org/2000/svg" width="512" height="512" viewBox="0 0 512 512" fill="none">
  <rect width="512" height="512" rx="120" fill="#0F766E" />
  <circle cx="256" cy="256" r="168" fill="#E6FFFA" />
  <path d="M196 173C196 160.85 205.85 151 218 151H294C306.15 151 316 160.85 316 173V200H343C355.15 200 365 209.85 365 222V290C365 302.15 355.15 312 343 312H316V339C316 351.15 306.15 361 294 361H218C205.85 361 196 351.15 196 339V312H169C156.85 312 147 302.15 147 290V222C147 209.85 156.85 200 169 200H196V173Z" fill="#0F766E" />
  <path d="M237 230H275V246H291V284H275V300H237V284H221V246H237V230Z" fill="#E6FFFA" />
</svg>
